HIERARCHY
ROOT root
{
	OFFSET	0	13.1	24.9
	CHANNELS 6  Xposition Yposition Zposition Xrotation Yrotation Zrotation
	JOINT spine_1
	{
		OFFSET	0	9.99999	0
		CHANNELS 3  Xrotation Yrotation Zrotation
		JOINT spine_2
		{
			OFFSET	0	112	-10
			CHANNELS 3  Xrotation Yrotation Zrotation
			JOINT spine_3
			{
				OFFSET	0	206.5	19.3
				CHANNELS 3  Xrotation Yrotation Zrotation
				JOINT spine_4
				{
					OFFSET	0	110.4	14.6
					CHANNELS 3  Xrotation Yrotation Zrotation
					JOINT neck_1
					{
						OFFSET	0	71.8	-50.3
						CHANNELS 3  Xrotation Yrotation Zrotation
						JOINT neck_2
						{
							OFFSET	0	86.2	-25.8
							CHANNELS 3  Xrotation Yrotation Zrotation
							JOINT head_ee
							{
								OFFSET	0	179.8	-8.7
								CHANNELS 3  Xrotation Yrotation Zrotation
								End Site
								{
									OFFSET	1	0	0
								}
							}
						}
					}
					JOINT left_clavicle
					{
						OFFSET	-43.2	22.4	-70.8
						CHANNELS 3  Xrotation Yrotation Zrotation
						JOINT left_shoulder
						{
							OFFSET	-93.9	-5.79999	48.7
							CHANNELS 3  Xrotation Yrotation Zrotation
							JOINT left_elbow
							{
								OFFSET	-291.4	-30.8	15.2
								CHANNELS 3  Xrotation Yrotation Zrotation
								JOINT left_lowarm_twist
								{
									OFFSET	-110.7	-3.89999	13.6
									CHANNELS 3  Xrotation Yrotation Zrotation
									JOINT left_hand
									{
										OFFSET	-110.7	-3.89999	13.6
										CHANNELS 3  Xrotation Yrotation Zrotation
										JOINT left_ee
										{
											OFFSET	-80.8	-5.10001	12.1
											CHANNELS 3  Xrotation Yrotation Zrotation
											End Site
											{
												OFFSET	1	0	0
											}
										}
									}
								}
							}
						}
					}
					JOINT right_clavicle
					{
						OFFSET	43.2	22.4	-70.8
						CHANNELS 3  Xrotation Yrotation Zrotation
						JOINT right_shoulder
						{
							OFFSET	93.9	-5.79999	48.7
							CHANNELS 3  Xrotation Yrotation Zrotation
							JOINT right_elbow
							{
								OFFSET	291.4	-30.8	15.2
								CHANNELS 3  Xrotation Yrotation Zrotation
								JOINT right_lowarm_twist
								{
									OFFSET	110.7	-3.89999	13.6
									CHANNELS 3  Xrotation Yrotation Zrotation
									JOINT right_hand
									{
										OFFSET	110.7	-3.89999	13.6
										CHANNELS 3  Xrotation Yrotation Zrotation
										JOINT right_ee
										{
											OFFSET	80.8	-5.10001	12.1
											CHANNELS 3  Xrotation Yrotation Zrotation
											End Site
											{
												OFFSET	1	0	0
											}
										}
									}
								}
							}
						}
					}
				}
			}
		}
	}
	JOINT left_hip
	{
		OFFSET	-82.8	-127.5	0.300001
		CHANNELS 3  Xrotation Yrotation Zrotation
		JOINT left_knee
		{
			OFFSET	-28.2	-396.7	2.2
			CHANNELS 3  Xrotation Yrotation Zrotation
			JOINT left_ankle
			{
				OFFSET	-11.7	-411.3	35.4
				CHANNELS 3  Xrotation Yrotation Zrotation
				JOINT left_toes
				{
					OFFSET	0	-60	-88.6
					CHANNELS 3  Xrotation Yrotation Zrotation
					JOINT left_foot_ee
					{
						OFFSET	-22.5	-16.5	-42.2
						CHANNELS 3  Xrotation Yrotation Zrotation
						End Site
						{
							OFFSET	1	0	0
						}
					}
				}
			}
		}
	}
	JOINT right_hip
	{
		OFFSET	82.8	-127.5	0.300001
		CHANNELS 3  Xrotation Yrotation Zrotation
		JOINT right_knee
		{
			OFFSET	28.2	-396.7	2.2
			CHANNELS 3  Xrotation Yrotation Zrotation
			JOINT right_ankle
			{
				OFFSET	11.7	-411.3	35.4
				CHANNELS 3  Xrotation Yrotation Zrotation
				JOINT right_toes
				{
					OFFSET	0	-60	-88.6
					CHANNELS 3  Xrotation Yrotation Zrotation
					JOINT right_foot_ee
					{
						OFFSET	22.5	-16.5	-42.2
						CHANNELS 3  Xrotation Yrotation Zrotation
						End Site
						{
							OFFSET	1	0	0
						}
					}
				}
			}
		}
	}
}
MOTION
Frames: 14
Frame Time: 0.02
2800.94 716.97 -1473.77 -13.5530360348 56.7455030152 9.01362594658 3.04643 -0.13709 -0.00678031 3.04642 -0.136381 -0.01549 3.04646 -0.132223 -0.0368329 3.04649 -0.136381 -0.0154884 -14.3901 10.7681 0.153296 -14.7398 20.4736 3.69355 -0.0 0.0 -0.0 3.75284 13.0725 7.75109 1.27434 -27.0989 55.6793 7.09325 -74.0758 5.35546 -50.4364 -4.12301 4.70553 -1.35071 14.3251 -2.54279 -0.0 0.0 -0.0 6.57333 1.62092 -12.7314 -31.4663 3.51785 -64.5477 0.638299 17.5468 -0.0985112 85.2413 4.45544 8.8772 -6.9511 -29.5747 26.7732 0.0 0.0 0.0 -13.373 9.9349 11.9742 0.646964 -0.027181 -0.0955592 34.3994 2.65929 -4.34558 -40.1066 0.0 0.0 -0.0 0.0 -0.0 40.5135 24.6484 -6.6469 3.26646 0.14823 0.479216 -12.0993 8.60773 -1.89446 -22.947 0.0 0.0 0.0 0.0 0.0 
2650.40285194 724.624 -1532.11591977 -19.9100103543 57.7280456868 14.245009538 3.56968 0.256288 -0.263967 3.56968 0.272566 -0.247124 3.5685 0.306329 -0.203776 3.56855 0.270302 -0.249597 -9.72527 14.8854 2.75754 -9.92478 26.1669 6.42653 -0.0 0.0 -0.0 1.63946 17.5562 4.57336 -5.41899 -28.8558 59.0209 5.16775 -68.6369 3.52892 -50.9994 -4.18935 4.73415 -0.606367 21.6264 5.11244 -0.0 0.0 -0.0 6.81108 -0.0543623 -13.2178 -28.9978 9.47848 -63.8805 0.62023 17.0794 -0.0931342 85.2741 4.45938 8.87869 -5.58332 -29.2377 18.9238 0.0 0.0 0.0 -7.36056 7.45037 9.79171 -17.3202 0.317914 2.62883 38.8572 5.75875 -4.75781 -36.2992 0.0 0.0 -0.0 0.0 -0.0 37.6445 26.7153 -7.0802 -7.54405 -0.236306 -1.13284 -0.386832 12.572 -0.0606937 -8.21427 0.0 0.0 0.0 0.0 0.0 
2651.47004339 724.624 -1534.79795566 -19.374725898 56.7632328986 13.6085466976 3.56968 0.256288 -0.263967 3.56968 0.272566 -0.247124 3.5685 0.306329 -0.203776 3.56855 0.270302 -0.249597 -9.72527 14.8854 2.75754 -9.92478 26.1669 6.42653 -0.0 0.0 -0.0 1.63946 17.5562 4.57336 -5.41899 -28.8558 59.0209 5.16775 -68.6369 3.52892 -50.9994 -4.18935 4.73415 -0.606367 21.6264 5.11244 -0.0 0.0 -0.0 6.81108 -0.0543623 -13.2178 -28.9978 9.47848 -63.8805 0.62023 17.0794 -0.0931342 85.2741 4.45938 8.87869 -5.58332 -29.2377 18.9238 0.0 0.0 0.0 -7.36056 7.45037 9.79171 -17.3202 0.317914 2.62883 38.8572 5.75875 -4.75781 -36.2992 0.0 0.0 -0.0 0.0 -0.0 37.6445 26.7153 -7.0802 -7.54405 -0.236306 -1.13284 -0.386832 12.572 -0.0606937 -8.21427 0.0 0.0 0.0 0.0 0.0 
2652.46525527 724.624 -1537.18079937 -18.9234413491 55.8974939783 13.0663157609 3.56968 0.256288 -0.263967 3.56968 0.272566 -0.247124 3.5685 0.306329 -0.203776 3.56855 0.270302 -0.249597 -9.72527 14.8854 2.75754 -9.92478 26.1669 6.42653 -0.0 0.0 -0.0 1.63946 17.5562 4.57336 -5.41899 -28.8558 59.0209 5.16775 -68.6369 3.52892 -50.9994 -4.18935 4.73415 -0.606367 21.6264 5.11244 -0.0 0.0 -0.0 6.81108 -0.0543623 -13.2178 -28.9978 9.47848 -63.8805 0.62023 17.0794 -0.0931342 85.2741 4.45938 8.87869 -5.58332 -29.2377 18.9238 0.0 0.0 0.0 -7.36056 7.45037 9.79171 -17.3202 0.317914 2.62883 38.8572 5.75875 -4.75781 -36.2992 0.0 0.0 -0.0 0.0 -0.0 37.6445 26.7153 -7.0802 -7.54405 -0.236306 -1.13284 -0.386832 12.572 -0.0606937 -8.21427 0.0 0.0 0.0 0.0 0.0 
2614.17645822 726.9 -1545.50041099 -19.0275886021 56.7900941619 12.9733448036 3.84209 0.28048 -0.0167298 3.84205 0.280976 0.00115188 3.84207 0.277874 0.0416547 3.84218 0.280965 -0.00275334 -13.6359 13.1255 0.169027 -14.1139 24.9184 4.36833 -0.0 0.0 -0.0 1.12693 20.8328 4.0525 -10.1589 -28.821 58.1708 4.51678 -65.8971 2.92834 -52.3013 -4.34381 4.79782 -0.657482 18.1174 3.36385 -0.0 0.0 -0.0 6.95956 0.549038 -13.511 -24.2838 14.5909 -65.1471 0.650231 17.8541 -0.102139 85.2889 4.46115 8.87936 -6.20472 -29.7234 22.1361 0.0 0.0 0.0 -3.34281 7.7861 9.93504 -28.4077 0.101755 4.31388 40.9742 8.20703 -4.94953 -34.0995 0.0 0.0 -0.0 0.0 -0.0 34.2445 26.2835 -6.98187 -9.01429 -0.264877 -1.35663 8.41662 3.01183 1.22523 -7.78048 0.0 0.0 0.0 0.0 0.0 
2592.47587731 726.86 -1556.42335838 -17.1106829725 57.653609763 10.7798096822 3.69621 0.254887 0.440883 3.69629 0.226316 0.456208 3.69806 0.156958 0.484467 3.6978 0.2315 0.4536 -14.0225 13.4909 -1.34492 -14.6008 26.555 3.17516 -0.0 0.0 -0.0 0.67151 22.6783 3.56275 -11.7365 -28.6102 57.3848 4.39948 -65.3313 2.82151 -52.944 -4.42056 4.82795 -0.836386 16.0537 1.40117 -0.0 0.0 -0.0 7.05889 0.343183 -13.7091 -24.5043 17.4701 -65.4614 0.676367 18.5236 -0.110298 85.3019 4.46271 8.87996 -6.28084 -29.6027 22.6904 0.0 0.0 0.0 -2.48394 7.93807 9.4667 -33.4792 -0.104845 5.06449 39.9924 8.84138 -4.86819 -33.7697 0.0 0.0 -0.0 0.0 -0.0 31.2585 26.4586 -6.24586 -9.80743 -0.277902 -1.47764 12.6766 0.538821 1.80315 -7.87078 0.0 0.0 0.0 0.0 0.0 
2544.06711385 724.904 -1559.46394121 -16.7785024243 63.9000476445 10.0350234009 3.7539 0.252391 1.17688 3.75465 0.176998 1.19055 3.75795 0.00172384 1.20363 3.75598 0.19178 1.18826 -16.154 14.3353 -4.01556 -17.1007 29.756 1.61024 -0.0 0.0 -0.0 -0.79407 23.2347 1.59814 -17.0365 -29.4569 56.3947 4.09722 -63.7519 2.54857 -53.68 -4.50888 4.86139 -0.473191 10.4661 1.30532 -0.0 0.0 -0.0 7.10966 0.896364 -13.8099 -25.1186 26.3314 -66.3743 0.804063 21.7177 -0.154242 85.2124 4.45198 8.87588 -5.85376 -29.3396 20.4063 0.0 0.0 0.0 -0.763069 8.35748 8.52655 -41.3055 -0.551904 6.18005 40.7794 14.1755 -4.98975 -33.3074 0.0 0.0 -0.0 0.0 -0.0 26.2509 26.0788 -4.63321 -16.0357 -0.321778 -2.43179 25.2436 -4.26637 3.36173 -6.81923 0.0 0.0 0.0 0.0 0.0 
2545.03306361 724.904 -1562.30683474 -16.4130345162 63.2912097201 9.62699449795 3.7539 0.252391 1.17688 3.75465 0.176998 1.19055 3.75795 0.00172384 1.20363 3.75598 0.19178 1.18826 -16.154 14.3353 -4.01556 -17.1007 29.756 1.61024 -0.0 0.0 -0.0 -0.79407 23.2347 1.59814 -17.0365 -29.4569 56.3947 4.09722 -63.7519 2.54857 -53.68 -4.50888 4.86139 -0.473191 10.4661 1.30532 -0.0 0.0 -0.0 7.10966 0.896364 -13.8099 -25.1186 26.3314 -66.3743 0.804063 21.7177 -0.154242 85.2124 4.45198 8.87588 -5.85376 -29.3396 20.4063 0.0 0.0 0.0 -0.763069 8.35748 8.52655 -41.3055 -0.551904 6.18005 40.7794 14.1755 -4.98975 -33.3074 0.0 0.0 -0.0 0.0 -0.0 26.2509 26.0788 -4.63321 -16.0357 -0.321778 -2.43179 25.2436 -4.26637 3.36173 -6.81923 0.0 0.0 0.0 0.0 0.0 
2518.55681527 728.612 -1560.89503073 -16.7871864031 69.2195988051 9.45993117677 3.59005 0.18373 1.66608 3.59159 0.0773566 1.67439 3.59313 -0.172172 1.66731 3.58926 0.0932711 1.67358 -15.8414 14.9858 -5.30974 -16.8677 31.742 0.590615 -0.0 0.0 -0.0 -1.22406 23.2975 1.01611 -19.0959 -29.6607 55.8457 3.52066 -60.1558 2.03947 -54.2697 -4.57993 4.88737 0.211513 6.74288 4.19247 -0.0 0.0 -0.0 7.04039 -0.668454 -13.6707 -27.0578 32.8319 -64.7899 0.941793 25.0104 -0.208885 85.175 4.4475 8.87417 -5.38458 -29.079 17.9076 0.0 0.0 0.0 1.22191 12.4629 7.40273 -42.3897 -0.625757 6.32954 41.4207 17.4348 -5.10129 -35.1423 0.0 0.0 -0.0 0.0 -0.0 21.8252 25.8931 -2.83988 -18.6603 -0.309175 -2.83425 26.9657 -6.6342 3.55518 -6.65015 0.0 0.0 0.0 0.0 0.0 
2508.61866614 726.951 -1561.94937555 -19.4502576543 72.0714630983 11.9445167697 3.64988 0.190209 1.83258 3.65174 0.0732316 1.84097 3.65318 -0.199085 1.83164 3.64851 0.0926362 1.84009 -16.6848 15.4611 -4.7288 -17.891 32.2952 1.61547 -0.0 0.0 -0.0 -1.67552 23.6069 0.444943 -16.3382 -31.1869 57.2172 2.81045 -54.3009 1.44151 -55.4563 -4.7237 4.93741 0.436526 5.39444 5.12303 -0.0 0.0 -0.0 7.11898 -4.75939 -13.7696 -27.07 34.1564 -63.0949 1.00262 26.4116 -0.235275 81.0968 3.96559 8.67038 -5.24384 -26.6947 18.9029 0.0 0.0 0.0 1.17802 15.0755 6.4434 -40.8276 -0.520258 6.11374 41.7849 19.991 -5.18998 -34.7263 0.0 0.0 -0.0 0.0 -0.0 20.32 23.5415 -2.00903 -17.3273 -0.31788 -2.62992 29.299 -8.91952 3.81689 -10.0491 0.0 0.0 0.0 0.0 0.0 
2501.59077421 726.623 -1563.28499495 -21.4705926802 72.8987115275 13.8037292981 3.92753 0.289938 1.86892 3.92945 0.170448 1.88357 3.93398 -0.0999082 1.88862 3.92906 0.199565 1.88071 -15.6829 15.4812 -4.56896 -16.7532 32.2685 1.44359 -0.0 0.0 -0.0 -2.16556 22.6944 -0.382544 -16.3562 -35.3415 57.3648 2.21814 -47.6888 0.980469 -55.6132 -4.74279 4.9438 0.916576 3.96456 7.72963 -0.0 0.0 -0.0 6.90445 -6.10289 -13.334 -27.7331 35.1081 -62.3895 1.19023 30.5228 -0.32476 78.6169 3.68002 8.52989 -5.32377 -27.6393 18.6587 0.0 0.0 0.0 3.1191 21.7258 4.81119 -41.2886 -0.550778 6.17772 41.8979 20.3484 -5.20887 -34.7428 0.0 0.0 -0.0 0.0 -0.0 19.0265 20.9349 -1.23654 -13.6977 -0.317473 -2.07312 31.9484 -9.97696 4.10295 -14.8305 0.0 0.0 0.0 0.0 0.0 
2494.82987563 728.924 -1571.8386426 -21.9346356233 74.2084319736 14.4412914499 3.71227 0.224904 1.92545 3.71433 0.101951 1.93585 3.71674 -0.182525 1.92992 3.71156 0.124503 1.93453 -15.2129 16.2178 -4.72291 -16.334 33.7703 1.45997 -0.0 0.0 -0.0 -1.9524 22.5781 -0.104856 -15.6547 -35.3973 58.2105 1.91984 -43.5577 0.767121 -55.1081 -4.68141 4.92304 1.04312 3.78546 8.50252 -0.0 0.0 -0.0 6.80685 -7.5043 -13.1171 -28.4853 37.712 -61.2897 1.31182 33.0158 -0.388791 76.2083 3.40873 8.38175 -5.5562 -27.8713 19.8446 0.0 0.0 0.0 4.13555 23.8351 4.0062 -40.8107 -0.519144 6.11138 41.9004 20.6808 -5.21757 -34.777 0.0 0.0 -0.0 0.0 -0.0 18.1907 19.6848 -1.09415 -14.5311 -0.320686 -2.20095 33.8834 -11.1045 4.30774 -16.4137 0.0 0.0 0.0 0.0 0.0 
2498.49269049 728.924 -1582.61159072 -19.5460795744 72.3111041283 11.9474042393 3.71227 0.224904 1.92545 3.71433 0.101951 1.93585 3.71674 -0.182525 1.92992 3.71156 0.124503 1.93453 -15.2129 16.2178 -4.72291 -16.334 33.7703 1.45997 -0.0 0.0 -0.0 -1.9524 22.5781 -0.104856 -15.6547 -35.3973 58.2105 1.91984 -43.5577 0.767121 -55.1081 -4.68141 4.92304 1.04312 3.78546 8.50252 -0.0 0.0 -0.0 6.80685 -7.5043 -13.1171 -28.4853 37.712 -61.2897 1.31182 33.0158 -0.388791 76.2083 3.40873 8.38175 -5.5562 -27.8713 19.8446 0.0 0.0 0.0 4.13555 23.8351 4.0062 -40.8107 -0.519144 6.11138 41.9004 20.6808 -5.21757 -34.777 0.0 0.0 -0.0 0.0 -0.0 18.1907 19.6848 -1.09415 -14.5311 -0.320686 -2.20095 33.8834 -11.1045 4.30774 -16.4137 0.0 0.0 0.0 0.0 0.0 
2490.71498212 732.191 -1593.81668085 -19.5004088052 71.8998778753 11.6752883733 3.77898 0.300443 1.9755 3.78114 0.174153 1.99061 3.78607 -0.116663 1.9948 3.78057 0.199779 1.9882 -16.9381 14.7616 -4.43488 -18.0515 30.7871 1.64722 -0.0 0.0 -0.0 -2.28452 23.8463 -0.344786 -17.2514 -36.9803 58.0696 1.57006 -37.8717 0.538679 -55.8631 -4.77321 4.95388 1.05518 3.11751 8.31847 -0.0 0.0 -0.0 6.55532 -10.8128 -12.5605 -27.3911 37.0504 -61.4001 1.48854 36.4019 -0.489459 73.2358 3.08286 8.18345 -4.49583 -25.9037 15.0727 0.0 0.0 0.0 7.28501 26.4583 2.02096 -41.3816 -0.556996 6.19059 42.3318 22.897 -5.31811 -34.4651 0.0 0.0 -0.0 0.0 -0.0 16.6301 18.2361 -0.820155 -12.7282 -0.311395 -1.92449 36.9008 -11.7855 4.60813 -19.8954 0.0 0.0 0.0 0.0 0.0 
